<svg xmlns="http://www.w3.org/2000/svg" viewBox="0 0 128 128" width="128" height="128">
  <defs>
    <linearGradient id="bg" x1="0%" y1="0%" x2="100%" y2="100%">
      <stop offset="0%" stop-color="#DC382D"/>
      <stop offset="100%" stop-color="#a82a22"/>
    </linearGradient>
  </defs>
  <rect width="128" height="128" rx="28" fill="url(#bg)"/>
  <path d="M 92,12 C 76,44 56,76 28,116" stroke="#fff" stroke-width="3.5" stroke-linecap="round" fill="none"/>
  <path d="M 92,12 C 88,16 78,22 68,34 C 54,50 42,68 36,86 C 32,98 36,104 42,100 C 50,94 60,76 72,56 C 82,40 90,24 92,12 Z" fill="#fff"/>
  <path d="M 72,38 L 60,52" stroke="#DC382D" stroke-width="1.2" stroke-linecap="round" opacity="0.18"/>
  <path d="M 62,52 L 50,66" stroke="#DC382D" stroke-width="1.2" stroke-linecap="round" opacity="0.15"/>
  <path d="M 52,66 L 42,78" stroke="#DC382D" stroke-width="1.2" stroke-linecap="round" opacity="0.12"/>
  <path d="M 18,38 C 26,36 34,38 42,36" stroke="#fff" stroke-width="2" stroke-linecap="round" fill="none" opacity="0.4"/>
  <path d="M 12,52 C 20,50 28,52 36,50" stroke="#fff" stroke-width="1.8" stroke-linecap="round" fill="none" opacity="0.3"/>
  <path d="M 16,66 C 22,64 28,66 32,64" stroke="#fff" stroke-width="1.5" stroke-linecap="round" fill="none" opacity="0.2"/>
  <path d="M 86,48 C 94,46 102,48 110,46" stroke="#fff" stroke-width="2" stroke-linecap="round" fill="none" opacity="0.4"/>
  <path d="M 82,62 C 90,60 98,62 106,60" stroke="#fff" stroke-width="1.8" stroke-linecap="round" fill="none" opacity="0.3"/>
  <path d="M 76,76 C 82,74 88,76 94,74" stroke="#fff" stroke-width="1.5" stroke-linecap="round" fill="none" opacity="0.2"/>
</svg>
